<svg viewBox="0 0 1820 880" xmlns="http://www.w3.org/2000/svg" style="font-family: -apple-system, 'Segoe UI', sans-serif;">

  <defs>
    <marker id="arr" viewBox="0 0 10 10" refX="9" refY="5" markerWidth="7" markerHeight="7" orient="auto-start-reverse">
      <path d="M0,1 L9,5 L0,9 Z" fill="#505060"/>
    </marker>
    <marker id="arr-p" viewBox="0 0 10 10" refX="9" refY="5" markerWidth="7" markerHeight="7" orient="auto-start-reverse">
      <path d="M0,1 L9,5 L0,9 Z" fill="#7b6ef6"/>
    </marker>
    <marker id="arr-t" viewBox="0 0 10 10" refX="9" refY="5" markerWidth="7" markerHeight="7" orient="auto-start-reverse">
      <path d="M0,1 L9,5 L0,9 Z" fill="#4fc3a1"/>
    </marker>
    <marker id="arr-r" viewBox="0 0 10 10" refX="9" refY="5" markerWidth="7" markerHeight="7" orient="auto-start-reverse">
      <path d="M0,1 L9,5 L0,9 Z" fill="#e05555"/>
    </marker>
    <marker id="arr-y" viewBox="0 0 10 10" refX="9" refY="5" markerWidth="7" markerHeight="7" orient="auto-start-reverse">
      <path d="M0,1 L9,5 L0,9 Z" fill="#c09040"/>
    </marker>
  </defs>

  <!-- ═══ BACKGROUND ═══ -->
  <rect width="1820" height="880" fill="#0a0a0f"/>

  <!-- ═══ SECTION BACKGROUNDS ═══ -->

  <!-- 비로그인 홈 section: x=210 y=20 w=420 h=360 -->
  <rect x="210" y="20" width="420" height="360" rx="12" fill="#1a1528" stroke="#3a2860" stroke-width="1"/>
  <text x="228" y="44" fill="#a070e0" font-size="10" font-weight="700" letter-spacing="1.5">비로그인 홈</text>

  <!-- 로그인 홈 section: x=680 y=20 w=1120 w=840 -->
  <rect x="680" y="20" width="1120" height="840" rx="12" fill="#081828" stroke="#153050" stroke-width="1"/>
  <text x="698" y="44" fill="#40b090" font-size="10" font-weight="700" letter-spacing="1.5">로그인 홈</text>

  <!-- 데이터뷰 sub: x=870 y=60 w=480 h=420 -->
  <rect x="870" y="60" width="480" height="420" rx="8" fill="#0c2040" stroke="#1a3a60" stroke-width="1"/>
  <text x="885" y="80" fill="#6090c0" font-size="9" font-weight="600" letter-spacing="1">데이터뷰</text>

  <!-- 학습 sub: x=870 y=500 w=480 h=240 -->
  <rect x="870" y="500" width="480" height="240" rx="8" fill="#0c2040" stroke="#1a3a60" stroke-width="1"/>
  <text x="885" y="520" fill="#6090c0" font-size="9" font-weight="600" letter-spacing="1">학습</text>

  <!-- 관리자 section: x=1430 y=700 w=360 h=145 -->
  <rect x="1430" y="700" width="360" height="145" rx="8" fill="#281808" stroke="#503010" stroke-width="1"/>
  <text x="1447" y="720" fill="#c09040" font-size="9" font-weight="600" letter-spacing="1">관리자 전용</text>

  <!-- ═══ NODES ═══ -->

  <!-- 랜딩페이지: center(105,395) rect(30,370,150,50) -->
  <rect x="30" y="370" width="150" height="50" rx="8" fill="#111" stroke="#ffffff" stroke-width="1.5"/>
  <text x="105" y="390" fill="#fff" font-size="11" font-weight="700" text-anchor="middle">/ 랜딩페이지</text>
  <text x="105" y="408" fill="#707080" font-size="9" text-anchor="middle">진입점</text>

  <!-- 비로그인홈 (/universe): center(305,145) rect(225,118,160,54) -->
  <rect x="225" y="118" width="160" height="54" rx="8" fill="#241c3c" stroke="#7b6ef6" stroke-width="1.5"/>
  <text x="305" y="139" fill="#c0a8f8" font-size="11" font-weight="700" text-anchor="middle">/universe</text>
  <text x="305" y="158" fill="#8060c0" font-size="9" text-anchor="middle">Home 홈</text>

  <!-- 검색필터: center(498,110) rect(423,87,150,46) -->
  <rect x="423" y="87" width="150" height="46" rx="6" fill="#1c1530" stroke="#4a3880" stroke-width="1"/>
  <text x="498" y="106" fill="#b0a0e0" font-size="10" text-anchor="middle">검색 결과 필터</text>
  <text x="498" y="122" fill="#605878" font-size="9" text-anchor="middle">그래프 실시간 필터</text>

  <!-- 노드상세: center(498,250) rect(423,223,150,54) -->
  <rect x="423" y="223" width="150" height="54" rx="6" fill="#1c1530" stroke="#4a3880" stroke-width="1"/>
  <text x="498" y="244" fill="#b0a0e0" font-size="10" text-anchor="middle">노드 상세 패널</text>
  <text x="498" y="262" fill="#605878" font-size="9" text-anchor="middle">추가 시도 → 로그인</text>

  <!-- /login: center(498,420) rect(423,395,150,50) -->
  <rect x="423" y="395" width="150" height="50" rx="8" fill="#181818" stroke="#505060" stroke-width="1.5"/>
  <text x="498" y="415" fill="#c0c0cc" font-size="11" font-weight="700" text-anchor="middle">/login</text>
  <text x="498" y="433" fill="#606068" font-size="9" text-anchor="middle">로그인 · 회원가입</text>

  <!-- /my (Home): center(780,395) rect(700,368,160,54) -->
  <rect x="700" y="368" width="160" height="54" rx="8" fill="#0c2c1c" stroke="#3cb888" stroke-width="2"/>
  <text x="780" y="389" fill="#60e8a8" font-size="11" font-weight="700" text-anchor="middle">/my</text>
  <text x="780" y="408" fill="#309868" font-size="10" text-anchor="middle">Home 홈</text>

  <!-- 본초 DV: center(965,115) rect(887,92,156,46) -->
  <rect x="887" y="92" width="156" height="46" rx="6" fill="#0a1c38" stroke="#1e4070" stroke-width="1"/>
  <text x="965" y="110" fill="#80b8e8" font-size="10" text-anchor="middle">/boncho</text>
  <text x="965" y="128" fill="#3a6090" font-size="9" text-anchor="middle">본초 데이터뷰</text>

  <!-- 경혈 DV: center(965,235) rect(887,212,156,46) -->
  <rect x="887" y="212" width="156" height="46" rx="6" fill="#0a1c38" stroke="#1e4070" stroke-width="1"/>
  <text x="965" y="230" fill="#80b8e8" font-size="10" text-anchor="middle">/acupoint</text>
  <text x="965" y="248" fill="#3a6090" font-size="9" text-anchor="middle">경혈 데이터뷰</text>

  <!-- 방제 DV: center(965,355) rect(887,332,156,46) -->
  <rect x="887" y="332" width="156" height="46" rx="6" fill="#0a1c38" stroke="#1e4070" stroke-width="1"/>
  <text x="965" y="350" fill="#80b8e8" font-size="10" text-anchor="middle">/prescription</text>
  <text x="965" y="368" fill="#3a6090" font-size="9" text-anchor="middle">방제 데이터뷰</text>

  <!-- 본초 상세: center(1195,115) rect(1113,92,164,46) -->
  <rect x="1113" y="92" width="164" height="46" rx="6" fill="#081828" stroke="#183848" stroke-width="1"/>
  <text x="1195" y="110" fill="#6090b8" font-size="10" text-anchor="middle">본초 노드 상세</text>
  <text x="1195" y="128" fill="#304858" font-size="9" text-anchor="middle">내 우주 추가 → 홈 반영</text>

  <!-- 경혈 상세: center(1195,235) rect(1113,212,164,46) -->
  <rect x="1113" y="212" width="164" height="46" rx="6" fill="#081828" stroke="#183848" stroke-width="1"/>
  <text x="1195" y="230" fill="#6090b8" font-size="10" text-anchor="middle">경혈 노드 상세</text>
  <text x="1195" y="248" fill="#304858" font-size="9" text-anchor="middle">내 우주 추가 → 홈 반영</text>

  <!-- 방제 상세: center(1195,355) rect(1113,332,164,46) -->
  <rect x="1113" y="332" width="164" height="46" rx="6" fill="#081828" stroke="#183848" stroke-width="1"/>
  <text x="1195" y="350" fill="#6090b8" font-size="10" text-anchor="middle">방제 노드 상세</text>
  <text x="1195" y="368" fill="#304858" font-size="9" text-anchor="middle">내 우주 추가 → 홈 반영</text>

  <!-- 플래시카드: center(965,545) rect(887,522,156,46) -->
  <rect x="887" y="522" width="156" height="46" rx="6" fill="#0a1c38" stroke="#1e4070" stroke-width="1"/>
  <text x="965" y="540" fill="#80b8e8" font-size="10" text-anchor="middle">/flashcard</text>
  <text x="965" y="558" fill="#3a6090" font-size="9" text-anchor="middle">설정 → 학습 → 완료</text>

  <!-- 퀴즈: center(965,645) rect(887,622,156,46) -->
  <rect x="887" y="622" width="156" height="46" rx="6" fill="#0a1c38" stroke="#1e4070" stroke-width="1"/>
  <text x="965" y="640" fill="#80b8e8" font-size="10" text-anchor="middle">/quiz</text>
  <text x="965" y="658" fill="#3a6090" font-size="9" text-anchor="middle">설정 → 문제 → 결과</text>

  <!-- stats: center(1190,585) rect(1113,562,154,46) -->
  <rect x="1113" y="562" width="154" height="46" rx="6" fill="#081828" stroke="#183848" stroke-width="1"/>
  <text x="1190" y="580" fill="#6090b8" font-size="10" text-anchor="middle">/stats</text>
  <text x="1190" y="598" fill="#304858" font-size="9" text-anchor="middle">학습 통계</text>

  <!-- 설정: center(965,760) rect(887,737,156,46) -->
  <rect x="887" y="737" width="156" height="46" rx="6" fill="#0a1c38" stroke="#1e4070" stroke-width="1"/>
  <text x="965" y="755" fill="#80b8e8" font-size="10" text-anchor="middle">/settings</text>
  <text x="965" y="773" fill="#3a6090" font-size="9" text-anchor="middle">설정</text>

  <!-- /admin: center(1520,750) rect(1448,727,144,46) -->
  <rect x="1448" y="727" width="144" height="46" rx="6" fill="#302010" stroke="#706030" stroke-width="1.5"/>
  <text x="1520" y="745" fill="#e0c060" font-size="10" font-weight="600" text-anchor="middle">/admin</text>
  <text x="1520" y="763" fill="#908040" font-size="9" text-anchor="middle">관리자 패널</text>

  <!-- 유저관리: center(1685,738) rect(1607,725,116,26) -->
  <rect x="1607" y="725" width="116" height="26" rx="5" fill="#281808" stroke="#504020" stroke-width="1"/>
  <text x="1665" y="742" fill="#c0a040" font-size="9" text-anchor="middle">유저 관리</text>

  <!-- 콘텐츠CRUD: center(1685,763) rect(1607,750,116,26) -->
  <rect x="1607" y="750" width="116" height="26" rx="5" fill="#281808" stroke="#504020" stroke-width="1"/>
  <text x="1665" y="767" fill="#c0a040" font-size="9" text-anchor="middle">콘텐츠 CRUD</text>

  <!-- 태그관리: center(1685,788) rect(1607,775,116,26) -->
  <rect x="1607" y="775" width="116" height="26" rx="5" fill="#281808" stroke="#504020" stroke-width="1"/>
  <text x="1665" y="792" fill="#c0a040" font-size="9" text-anchor="middle">태그 관리</text>

  <!-- ═══ EDGES ═══ -->
  <!-- 모든 경로는 노드를 침범하지 않는 빈 공간 통로로만 라우팅 -->

  <!-- 1. 랜딩 → 비로그인홈: 오른쪽으로 나와 위로 올라감 -->
  <!-- 통로: x=200(노드들 사이 빈공간), y=118~395 -->
  <path d="M 180,385 L 200,385 L 200,145 L 225,145" stroke="#7b6ef6" stroke-width="1.5" fill="none" marker-end="url(#arr-p)"/>
  <text x="190" y="275" fill="#7b6ef6" font-size="9" text-anchor="middle" transform="rotate(-90,190,275)">EXPLORE</text>

  <!-- 2. 랜딩 → /login: 오른쪽으로 직선, y=420 통로 (비로그인홈 y=118~172, 아래 여백) -->
  <path d="M 180,410 L 423,410" stroke="#505060" stroke-width="1.5" fill="none" marker-end="url(#arr)"/>
  <text x="302" y="404" fill="#505060" font-size="9" text-anchor="middle">Log in · Sign up</text>

  <!-- 3. 랜딩 → /my (이미 로그인): y=460 아래 통로 (login 아래 y=445, 통로 y=460) -->
  <path d="M 180,418 L 180,462 L 692,462 L 692,395 L 700,395" stroke="#3cb888" stroke-width="1" fill="none" stroke-dasharray="5,3" marker-end="url(#arr-t)"/>
  <text x="436" y="475" fill="#3cb888" font-size="9" text-anchor="middle">이미 로그인</text>

  <!-- 4. 비로그인홈 → 검색필터: 오른쪽 위 대각 -->
  <path d="M 385,130 L 423,110" stroke="#4a3880" stroke-width="1" fill="none" marker-end="url(#arr)"/>
  <text x="415" y="115" fill="#6050a0" font-size="9" text-anchor="end">검색</text>

  <!-- 5. 비로그인홈 → 노드상세: x=408 통로 내려감 (검색필터 x=423~573, 통로 x=408) -->
  <path d="M 385,158 L 408,158 L 408,250 L 423,250" stroke="#4a3880" stroke-width="1" fill="none" marker-end="url(#arr)"/>
  <text x="403" y="210" fill="#6050a0" font-size="9" text-anchor="end">노드 클릭</text>

  <!-- 6. 노드상세 → /login (추가시도): y=277~395 수직 통로 -->
  <path d="M 498,277 L 498,395" stroke="#e05555" stroke-width="1" fill="none" marker-end="url(#arr-r)"/>
  <text x="513" y="340" fill="#c03030" font-size="9">추가 시도</text>

  <!-- 7. 비로그인홈 → /login (DB접근): x=407 통로, 노드상세 왼쪽 -->
  <path d="M 305,172 L 305,320 L 407,320 L 407,395 L 423,395" stroke="#e05555" stroke-width="1" stroke-dasharray="4,3" fill="none" marker-end="url(#arr-r)"/>
  <text x="360" y="314" fill="#a02020" font-size="9" text-anchor="middle">DB 접근</text>

  <!-- 8. /login → /my: x=573~700 사이 통로, y=420 -->
  <path d="M 573,420 L 640,420 L 640,395 L 700,395" stroke="#4fc3a1" stroke-width="1.5" fill="none" marker-end="url(#arr-t)"/>
  <text x="636" y="412" fill="#4fc3a1" font-size="9" text-anchor="middle">인증 완료</text>

  <!-- 9. /my → 데이터뷰 group: x=862 통로 (DV section x=870, 왼쪽 8px 여백) -->
  <!-- 세 방향 분기: /my 우측(860,395) → x=862 → 위로 올라가 각 DV로 -->
  <path d="M 860,383 L 862,383 L 862,115 L 887,115" stroke="#2060a0" stroke-width="1.5" fill="none" marker-end="url(#arr)"/>
  <path d="M 860,390 L 864,390 L 864,235 L 887,235" stroke="#2060a0" stroke-width="1.5" fill="none" marker-end="url(#arr)"/>
  <path d="M 860,398 L 866,398 L 866,355 L 887,355" stroke="#2060a0" stroke-width="1.5" fill="none" marker-end="url(#arr)"/>
  <text x="853" y="250" fill="#2060a0" font-size="9" text-anchor="end" transform="rotate(-90,853,250)">사이드바</text>

  <!-- 10. /my → 학습 group -->
  <path d="M 860,405 L 868,405 L 868,545 L 887,545" stroke="#2060a0" stroke-width="1.5" fill="none" marker-end="url(#arr)"/>
  <path d="M 860,408 L 870,408 L 870,645 L 887,645" stroke="#2060a0" stroke-width="1.5" fill="none" marker-end="url(#arr)"/>

  <!-- 11. /my → 설정 -->
  <path d="M 860,412 L 872,412 L 872,760 L 887,760" stroke="#2060a0" stroke-width="1.5" fill="none" marker-end="url(#arr)"/>

  <!-- 12. 본초DV → 본초상세 -->
  <path d="M 1043,115 L 1113,115" stroke="#183848" stroke-width="1" fill="none" marker-end="url(#arr)"/>
  <text x="1078" y="109" fill="#304858" font-size="8" text-anchor="middle">클릭</text>

  <!-- 13. 경혈DV → 경혈상세 -->
  <path d="M 1043,235 L 1113,235" stroke="#183848" stroke-width="1" fill="none" marker-end="url(#arr)"/>

  <!-- 14. 방제DV → 방제상세 -->
  <path d="M 1043,355 L 1113,355" stroke="#183848" stroke-width="1" fill="none" marker-end="url(#arr)"/>

  <!-- 15. 플래시카드 → stats: x=1095 통로 (stats x=1113, 왼쪽) -->
  <path d="M 1043,545 L 1095,545 L 1095,585 L 1113,585" stroke="#183848" stroke-width="1" fill="none" marker-end="url(#arr)"/>
  <text x="1070" y="560" fill="#304858" font-size="8" text-anchor="middle">완료</text>

  <!-- 16. 퀴즈 → stats -->
  <path d="M 1043,645 L 1095,645 L 1095,600 L 1113,600" stroke="#183848" stroke-width="1" fill="none" marker-end="url(#arr)"/>
  <text x="1070" y="638" fill="#304858" font-size="8" text-anchor="middle">완료</text>

  <!-- 17. 설정 → /admin: y=760 통로, x=1043~1448 사이 노드 없음 -->
  <path d="M 1043,760 L 1420,760 L 1420,750 L 1448,750" stroke="#c09040" stroke-width="1.5" fill="none" marker-end="url(#arr-y)"/>
  <text x="1232" y="752" fill="#c09040" font-size="9" text-anchor="middle">admin 계정만</text>

  <!-- 18. 설정 → 랜딩 (로그아웃): y=840 아래 통로 (모든 노드 아래) -->
  <path d="M 965,783 L 965,840 L 105,840 L 105,420" stroke="#404050" stroke-width="1" stroke-dasharray="5,3" fill="none" marker-end="url(#arr)"/>
  <text x="535" y="833" fill="#404050" font-size="9" text-anchor="middle">로그아웃</text>

  <!-- 19. /admin → 하위 항목들 -->
  <path d="M 1592,740 L 1607,738" stroke="#504020" stroke-width="1" fill="none" marker-end="url(#arr)"/>
  <path d="M 1592,750 L 1607,763" stroke="#504020" stroke-width="1" fill="none" marker-end="url(#arr)"/>
  <path d="M 1592,760 L 1607,788" stroke="#504020" stroke-width="1" fill="none" marker-end="url(#arr)"/>

</svg>
