<svg xmlns="http://www.w3.org/2000/svg" viewBox="0 0 32 32" width="32" height="32">
  <rect width="32" height="32" rx="8" fill="#060810"/>
  <circle cx="16" cy="16" r="1.8" fill="rgba(255,255,255,0.9)"/>
  <circle cx="10.5" cy="9" r="0.9" fill="rgba(255,255,255,0.55)"/>
  <circle cx="21" cy="8.5" r="0.7" fill="rgba(255,255,255,0.45)"/>
  <circle cx="7" cy="15" r="0.6" fill="rgba(255,255,255,0.35)"/>
  <circle cx="24.5" cy="14" r="0.8" fill="rgba(255,255,255,0.5)"/>
  <circle cx="9" cy="22" r="0.7" fill="rgba(255,255,255,0.4)"/>
  <circle cx="22" cy="22.5" r="0.9" fill="rgba(255,255,255,0.5)"/>
  <circle cx="16" cy="6.5" r="0.5" fill="rgba(255,255,255,0.3)"/>
  <circle cx="16" cy="25.5" r="0.6" fill="rgba(255,255,255,0.35)"/>
  <circle cx="5.5" cy="11" r="0.4" fill="rgba(255,255,255,0.25)"/>
  <circle cx="26" cy="19" r="0.5" fill="rgba(255,255,255,0.3)"/>
  <circle cx="13" cy="12" r="0.6" fill="rgba(255,255,255,0.4)"/>
  <circle cx="19.5" cy="11.5" r="0.55" fill="rgba(255,255,255,0.38)"/>
  <circle cx="12" cy="19" r="0.65" fill="rgba(255,255,255,0.42)"/>
  <circle cx="20" cy="18.5" r="0.6" fill="rgba(255,255,255,0.4)"/>
  <circle cx="14.5" cy="24" r="0.5" fill="rgba(255,255,255,0.3)"/>
  <circle cx="18" cy="24.5" r="0.45" fill="rgba(255,255,255,0.28)"/>
  <circle cx="8" cy="17.5" r="0.45" fill="rgba(255,255,255,0.28)"/>
  <circle cx="24" cy="10.5" r="0.4" fill="rgba(255,255,255,0.25)"/>
  <circle cx="14" cy="7.5" r="0.4" fill="rgba(255,255,255,0.25)"/>
  <circle cx="19" cy="26" r="0.4" fill="rgba(255,255,255,0.22)"/>
  <circle cx="6" cy="20" r="0.35" fill="rgba(255,255,255,0.2)"/>
  <circle cx="25.5" cy="16.5" r="0.45" fill="rgba(255,255,255,0.28)"/>
  <circle cx="11" cy="14.5" r="0.5" fill="rgba(255,255,255,0.32)"/>
  <circle cx="21.5" cy="15.5" r="0.5" fill="rgba(255,255,255,0.32)"/>
</svg>
